<?xml version="1.0" encoding="UTF-8" standalone="no"?>
<!DOCTYPE svg PUBLIC "-//W3C//DTD SVG 1.1//EN" "http://www.w3.org/Graphics/SVG/1.1/DTD/svg11.dtd">
<svg width="100%" height="100%" viewBox="0 0 734 347" version="1.1" xmlns="http://www.w3.org/2000/svg" xmlns:xlink="http://www.w3.org/1999/xlink" xml:space="preserve" xmlns:serif="http://www.serif.com/" style="fill-rule:evenodd;clip-rule:evenodd;stroke-linecap:round;stroke-linejoin:round;stroke-miterlimit:1.5;">
    <g transform="matrix(1,0,0,1,-173.369,-246.428)">
        <g transform="matrix(1,0,0,1,6.10419,38.335)">
            <path d="M890.761,345.123C896.28,345.563 884.34,348.548 883.727,348.701C867.124,352.852 853.058,337.005 780.187,333.17C779.347,333.126 766.179,327.195 747.055,330.064C720.968,333.977 702.46,326.107 658.355,329.374C619.721,332.236 620.249,322.816 523.754,322.816C498.937,322.816 312.292,307.945 290.444,305.214C285.7,304.621 236.406,298.46 231.772,293.825C226.928,288.981 259.379,277.998 296.657,276.223C478.88,267.546 607.182,242.706 708.4,271.046C731.154,277.418 804.647,287.238 885.453,341.108" style="fill:rgb(239,239,239);stroke:black;stroke-width:1px;"/>
        </g>
        <g transform="matrix(1,0,0,1,6.10419,38.335)">
            <path d="M288.718,285.197C317.153,287.782 324.062,293.48 366.028,293.48C406.987,293.48 552.033,316.95 620.391,313.153C649.853,311.516 773.732,315.594 824.709,328.338C828.074,329.179 865.336,338.495 867.506,335.241C868.267,334.099 756.734,289.924 693.214,273.807C561.138,240.296 487.906,268.786 413.656,274.498C396.242,275.837 396.677,279.675 351.187,279.675C347.177,279.675 294.931,279.675 301.488,286.232C302.033,286.777 301.877,286.707 302.524,286.922" style="fill:rgb(194,234,93);stroke:black;stroke-width:1px;"/>
        </g>
        <g transform="matrix(1,0,0,1,6.10419,38.335)">
            <path d="M310.582,281.967C309.405,283.78 311.811,281.504 337.55,283.648C357.165,285.283 446.112,280.779 475.043,277.565C477.78,277.261 571.591,271.397 579.987,270.873C653.667,266.268 667.689,286.939 717.48,294.599C723.944,295.594 723.043,299.301 796.873,314.067C832.597,321.212 886.001,352.742 898.32,343.65C894.589,342.145 821.744,306.734 812.691,299.77C805.574,294.296 758.307,273.536 703.792,241.975C668.919,221.785 635.604,225.487 629.57,226.157C405.924,251.007 406.339,254.105 368.881,263.876C345.979,269.851 312.203,272.375 306.882,281.519L312.302,281.519" style="fill:rgb(93,115,234);stroke:black;stroke-width:1px;"/>
        </g>
        <g transform="matrix(1,0,0,1,6.10419,38.335)">
            <path d="M183.712,283.679C178.664,284.598 173.736,288.51 168.55,293.475C165.216,296.667 173.329,298.097 177.296,298.593C184.364,299.476 191.678,299.166 203.712,298.593C268.256,295.519 272.828,290.94 283.601,288.92C292.267,287.295 292.665,290.612 392.575,272.447C551.568,243.539 552.379,249.007 638.762,229.799L653.508,228.737C663.261,228.729 668.013,228.964 715.275,252.595C720.601,255.258 771.452,280.683 781.589,286.386C782.084,286.664 845.092,317.252 851.462,320.352C853.257,321.226 863.034,326.727 873.489,332.335C880.736,336.222 889.107,340.931 895.633,342.562C903.065,344.42 901.042,340.955 897.046,338.014C892.223,334.465 883.336,330.472 869.131,321.704C853.938,312.325 835.181,302.58 817.181,293.254C807.87,288.43 798.692,283.921 790.459,279.205C781.06,273.82 686.193,224.684 673.751,216.09C654.194,202.581 653.747,210.686 630.377,214.581C584.845,222.169 534.421,225.84 412.005,248.794C337.666,262.732 266.729,270.614 254.034,272.025C249.449,272.534 227.271,275.752 183.712,283.679Z" style="fill:rgb(240,98,98);stroke:black;stroke-width:1px;"/>
        </g>
    </g>
    <g transform="matrix(1,0,0,1,-163.553,-209.5)">
        <path d="M550.977,508.534L507.567,519.446L507.982,524.147L558.413,509.873L550.977,508.534Z" style="stroke:black;stroke-width:1px;"/>
        <g transform="matrix(0.909279,-0.416187,0.416187,0.909279,-140.553,312.59)">
            <path d="M668.659,466.985C669.882,468.559 726.699,508.74 726.699,508.74C726.699,508.74 738.772,513.914 730.37,503.038L671.717,462.052C671.717,462.052 667.436,465.411 668.659,466.985Z" style="fill:rgb(128,128,128);stroke:black;stroke-width:1px;"/>
        </g>
        <path d="M729.163,467.282L728.692,467.241" style="fill:none;stroke:black;stroke-width:1px;"/>
        <path d="M728.133,470.328L728.56,470.142" style="fill:none;stroke:black;stroke-width:1px;"/>
        <path d="M731.77,468.157L731.857,468.164" style="fill:none;stroke:black;stroke-width:1px;"/>
        <path d="M548.559,465.982L506.301,510.593L506.153,513.841L547.526,469.915L548.559,465.982Z" style="stroke:black;stroke-width:1px;"/>
        <path d="M586.553,509.812L615.932,526.944L615.051,531.054L582.884,509.39L586.553,509.812Z" style="stroke:black;stroke-width:1px;"/>
        <g transform="matrix(0.998724,0.0505058,-0.0505058,0.998724,15.9829,-35.6076)">
            <rect x="592.646" y="297.386" width="3.582" height="156.155" style="fill:rgb(128,128,128);stroke:black;stroke-width:1px;"/>
        </g>
        <path d="M542.016,447.862C542.621,449.762 516.52,505.147 523.611,506.919C529.801,508.467 541.249,476.89 541.423,476.331C545.653,462.798 545.701,446.725 546.281,445.564" style="fill:rgb(105,62,0);stroke:black;stroke-width:1px;"/>
        <g transform="matrix(1,0,0,1,0.225568,0.225568)">
            <path d="M544.426,424.399C546.445,424.076 547.153,414.951 556.357,389.966C557.76,386.159 564.025,364.444 569.132,371.254C574.331,378.186 546.633,430.074 544.842,426.492" style="fill:rgb(105,62,0);stroke:black;stroke-width:1px;"/>
        </g>
        <path d="M623.676,507.31L615.932,526.944L632.531,523.097L629.179,506.814L623.676,507.31Z" style="stroke:black;stroke-width:1px;"/>
        <g transform="matrix(1,0,0,1,0.225568,0.225568)">
            <path d="M537.465,432.429C536.685,432.819 537.866,430.742 528.829,425.772C525.913,424.168 514.807,410.708 502.379,409.578C477.436,407.311 514.071,427.158 520.912,430.09C524.185,431.493 542.354,440.767 538.185,432.429" style="fill:rgb(105,62,0);stroke:black;stroke-width:1px;"/>
        </g>
        <path d="M651.782,495.993C651.893,496.532 651.308,496.595 652.581,502.819C652.599,502.903 656.033,512.009 658.523,513.669C659.219,514.133 659.857,519.093 668.597,517.22C676.877,515.446 681.093,494.383 680.868,492.809C680.794,492.291 681.421,484.304 676.412,476.922C670.65,468.431 653.684,481.157 651.613,492.551" style="stroke:black;stroke-width:1px;"/>
        <path d="M582.532,442.507C581.703,442.895 579.108,432.86 579.093,432.544C578.449,419.019 585.126,404.875 566.328,410.404C548.408,415.674 550.619,426.328 539.002,427.158C531.893,427.666 521.408,441.705 539.401,447.702C542.456,448.721 542.819,450.402 549.573,452.091C560.958,454.937 560.743,450.431 572.511,449.896C573.342,449.859 584.339,449.359 582.683,447.702C581.083,446.102 582.848,446.292 585.077,446.107" style="fill:rgb(128,128,128);stroke:black;stroke-width:1px;"/>
        <path d="M544.493,430.468C545.33,430.872 552.755,434.46 549.972,440.721C548.025,445.103 548.073,445.061 547.977,445.109" style="fill:rgb(128,128,128);stroke:black;stroke-width:1px;"/>
        <path d="M555.633,421.603C556.889,422.264 563.551,434.41 560.743,439.325" style="fill:rgb(128,128,128);stroke:black;stroke-width:1px;"/>
        <path d="M620.544,441.912C621.278,442.83 624.183,446.461 632.348,450.666C647.707,430.228 652.843,440.91 670.527,439.987C667.052,435.455 666.516,435.871 664.986,430.473C639.751,430.07 628.794,426.768 621.125,442.106" style="fill:rgb(240,98,98);stroke:black;stroke-width:1px;"/>
        <g transform="matrix(1,0,0,1,-0.223082,-0.0191158)">
            <path d="M670.474,440.394C670.008,440.635 702.212,448.967 698.11,465.376C694.631,479.291 683.251,475.819 686.863,482.44C691.186,490.367 686.143,500.188 679.494,492.33C679.103,491.868 680.489,476.918 668.247,479.144C658.183,480.973 656.5,504.7 651.57,504.934C615.931,506.632 616.29,510.625 580.597,509.976C562.149,509.641 540.277,513.87 541.62,496.402C543.635,470.207 550.346,471.777 552.092,457.813C552.19,457.029 558.023,445.275 562.563,444.821C570.714,444.006 570.916,449.588 588.027,458.143C593.394,460.827 599.561,462.115 605.516,462.556C610.515,462.926 615.639,462.169 619.617,460.693C622.716,459.544 625.004,458.104 626.749,455.486C627.598,454.213 632.157,449.873 632.178,449.863" style="fill:rgb(240,98,98);stroke:black;stroke-width:1px;"/>
        </g>
        <path d="M586.792,445.864C582.694,443.848 566.21,439.511 570.514,448.117C571.515,450.121 600.982,469.921 621.319,459.752C628.174,456.325 632.011,452.039 631.652,449.792C631.322,447.727 628.755,448.416 626.951,447.334C625.548,446.492 623.777,445.718 623.54,445.242C623,444.164 622.02,443.42 621.202,443.059C616.069,440.797 605.349,450.572 587.772,446.178C587.63,446.143 587.956,446.736 586.792,445.864Z" style="fill:rgb(240,98,98);stroke:black;stroke-width:1px;"/>
        <path d="M631.842,450.135C633.068,448.541 641.907,437.05 654.068,438.401C655.443,438.554 670.822,440.263 671.217,440.658" style="fill:rgb(240,98,98);stroke:black;stroke-width:1px;"/>
        <path d="M617.641,541.491C617.886,541.216 617.617,541.734 618.789,545.952C618.886,546.302 620.322,548.174 621.021,550.273C621.646,552.146 632.819,562.086 639.241,546.672C639.587,545.843 641.57,536.607 639.457,534.142C632.229,525.709 624.148,533.165 622.174,534.646" style="stroke:black;stroke-width:1px;"/>
        <path d="M613.515,542.151C613.084,540.394 609.541,531.929 620.445,518.298C621.379,517.131 634.146,510.031 639.961,516.21C641.021,517.336 645.306,521.889 646.01,534.574C646.217,538.293 642.019,540.591 634.992,535.726C626.596,529.913 621.929,545.181 617.925,545.448C615.851,545.586 613.749,543.663 613.676,542.927C613.562,541.788 613.75,541.705 613.316,541.415" style="fill:rgb(240,98,98);stroke:black;stroke-width:1px;"/>
        <path d="M480.427,532.711C483.162,538.182 482.325,541.252 487.229,543.541C487.742,543.781 490.385,546.931 495.015,544.794C499.419,542.762 507.008,524.246 499.401,521.076C494.377,518.983 481.859,522.342 479.263,530.563" style="stroke:black;stroke-width:1px;"/>
        <path d="M507.151,526.291C508.952,524.674 508.866,502.256 496.984,501.386C470.263,499.431 472.713,530.045 474.788,533.159C480.712,542.045 479.073,524.731 490.898,524.119C499.077,523.696 499.112,523.784 506.829,526.357" style="fill:rgb(240,98,98);stroke:black;stroke-width:1px;"/>
        <rect x="600.904" y="415.953" width="114.414" height="3.804"/>
        <path d="M711.525,415.981C714.168,417.781 814.294,323.084 819.764,320.349" style="stroke:black;stroke-width:1px;"/>
        <path d="M713.806,414.96C706.663,424.355 816.422,329.2 831.047,321.888" style="stroke:black;stroke-width:1px;"/>
        <path d="M606.693,416.763L343.609,284.566L612.649,415.948" style="fill:none;stroke:black;stroke-width:1px;"/>
        <path d="M542.54,449.316C542.708,449.085 542.875,448.854 543.043,448.623" style="fill:rgb(128,128,128);stroke:black;stroke-width:1px;"/>
        <path d="M578.669,414.114C586.64,406.143 588.461,410.134 593.851,408.664C598.126,407.498 608.207,407.189 599.042,398.024C597.026,396.008 593.197,374.031 613.575,378.56C626.066,381.335 625.608,400.96 618.765,404.382C615.605,405.962 616.659,407.861 620.192,408.404C626.684,409.403 627.43,407.182 631.871,411.129C640.404,418.715 665.843,415.636 677.027,411.908C680.569,410.727 691.072,412.497 681.569,416.06C674.994,418.526 674.794,417.699 668.446,420.746C663.529,423.106 659.865,422.718 656.525,423.555C653.336,424.355 646.028,424.055 643.701,424.283C637.937,424.848 639.523,429.707 633.039,435.265C610.464,454.614 609.058,454.91 592.294,452.263C590.445,451.971 587.249,453.613 582.952,447.332C580.895,444.327 576.949,442.119 576.464,434.356C575.806,423.838 573.647,423.084 580.227,412.557" style="fill:rgb(76,63,63);stroke:black;stroke-width:1px;"/>
        <path d="M734.691,470.344C734.757,470.404 734.71,470.321 734.758,470.273" style="fill:none;stroke:black;stroke-width:1px;"/>
        <path d="M649.886,229.838L550.019,328.354L549.099,334.416L554.957,334.12L555.272,329.381L560.931,326.695L656.889,230.36L649.886,229.838Z" style="fill:rgb(128,128,128);stroke:black;stroke-width:1px;"/>
        <path d="M734.358,469.084L734.494,469.087" style="fill:none;stroke:black;stroke-width:1px;"/>
        <path d="M731.875,470.731C731.913,470.71 731.951,470.69 731.989,470.669" style="fill:none;stroke:black;stroke-width:1px;"/>
    </g>
</svg>
