<?xml version="1.0" encoding="UTF-8" standalone="no"?>
<!-- Created with Inkscape (http://www.inkscape.org/) -->

<svg
   version="1.1"
   id="svg132"
   width="300"
   height="300"
   viewBox="0 0 300 300"
   sodipodi:docname="favicon.svg"
   inkscape:version="1.2 (dc2aeda, 2022-05-15)"
   inkscape:export-filename="favicon.svg"
   inkscape:export-xdpi="10.308724"
   inkscape:export-ydpi="10.308724"
   xmlns:inkscape="http://www.inkscape.org/namespaces/inkscape"
   xmlns:sodipodi="http://sodipodi.sourceforge.net/DTD/sodipodi-0.dtd"
   xmlns="http://www.w3.org/2000/svg"
   xmlns:svg="http://www.w3.org/2000/svg">
  <defs
     id="defs136">
    <clipPath
       clipPathUnits="userSpaceOnUse"
       id="clipPath148">
      <path
         d="M 0,64.149 H 234.947 V 0 H 0 Z"
         id="path146" />
    </clipPath>
    <clipPath
       clipPathUnits="userSpaceOnUse"
       id="clipPath196">
      <path
         d="M 5.844,30.834 C 5.844,17.081 16.993,5.932 30.747,5.932 v 0 c 13.753,0 24.902,11.149 24.902,24.902 v 0 c 0,13.754 -11.149,24.903 -24.902,24.903 v 0 C 16.993,55.737 5.844,44.588 5.844,30.834"
         id="path194" />
    </clipPath>
  </defs>
  <sodipodi:namedview
     id="namedview134"
     pagecolor="#505050"
     bordercolor="#eeeeee"
     borderopacity="1"
     inkscape:showpageshadow="0"
     inkscape:pageopacity="0"
     inkscape:pagecheckerboard="0"
     inkscape:deskcolor="#505050"
     showgrid="false"
     inkscape:zoom="2.1937564"
     inkscape:cx="137.66342"
     inkscape:cy="160.22745"
     inkscape:window-width="1639"
     inkscape:window-height="943"
     inkscape:window-x="30"
     inkscape:window-y="38"
     inkscape:window-maximized="0"
     inkscape:current-layer="g515">
    <inkscape:page
       x="0"
       y="0"
       id="page138"
       width="300"
       height="300"
       inkscape:export-filename="full-color-mark.png"
       inkscape:export-xdpi="1000"
       inkscape:export-ydpi="1000" />
  </sodipodi:namedview>
  <g
     id="g140"
     inkscape:groupmode="layer"
     inkscape:label="Page 1"
     transform="matrix(1.3333333,0,0,-1.3333333,0,85.531733)">
    <g
       id="g515"
       transform="matrix(4.4874833,0,0,4.4875014,-25.329954,-187.03536)">
      <g
         id="g465">
        <g
           id="g142">
          <g
             id="g144"
             clip-path="url(#clipPath148)">
            <g
               id="g186"
               transform="translate(55.6488,30.8344)">
              <path
                 d="m 0,0 c 0,-13.753 -11.149,-24.902 -24.902,-24.902 -13.754,0 -24.903,11.149 -24.903,24.902 0,13.753 11.149,24.902 24.903,24.902 C -11.149,24.902 0,13.753 0,0"
                 style="fill:#fec452;fill-opacity:1;fill-rule:nonzero;stroke:none"
                 id="path188" />
            </g>
          </g>
        </g>
        <g
           id="g190">
          <g
             id="g192"
             clip-path="url(#clipPath196)">
            <g
               id="g198"
               transform="translate(9.9258,13.5273)">
              <path
                 d="m 0,0 c 0.667,3.229 1.96,6.291 2.886,9.455 0.636,2.176 1.102,4.446 0.874,6.702 -0.285,2.818 -1.636,5.461 -1.796,8.29 -0.22,3.886 2.067,7.8 5.561,9.516 2.242,1.102 4.849,1.341 7.022,2.572 0.449,0.254 0.889,0.563 1.148,1.008 1.09,1.867 -1.573,3.706 -2.138,5.793 0,0 5.992,1.795 11.827,0.749 5.834,-1.046 22.954,-7.376 23.504,-16.458 0.551,-9.083 0.826,-4.624 0.496,-15.468 C 49.053,1.315 44.154,-6.722 37.714,-8.483 31.274,-10.245 23.347,-11.401 15.751,-10.025 8.154,-8.648 0,0 0,0"
                 style="fill:#f8992f;fill-opacity:1;fill-rule:nonzero;stroke:none"
                 id="path200" />
            </g>
            <g
               id="g202"
               transform="translate(9.9258,13.5273)">
              <path
                 d="m 0,0 c 0.667,3.229 1.96,6.291 2.886,9.455 0.636,2.176 1.102,4.446 0.874,6.702 -0.285,2.818 -1.636,5.461 -1.796,8.29 -0.22,3.886 2.067,7.8 5.561,9.516 2.242,1.102 4.849,1.341 7.022,2.572 0.449,0.254 0.889,0.563 1.148,1.008 1.09,1.867 -1.573,3.706 -2.138,5.793 0,0 5.992,1.795 11.827,0.749 5.834,-1.046 22.954,-7.376 23.504,-16.458 0.551,-9.083 0.826,-4.624 0.496,-15.468 C 49.053,1.315 44.154,-6.722 37.714,-8.483 31.274,-10.245 23.347,-11.401 15.751,-10.025 8.154,-8.648 0,0 0,0 Z"
                 style="fill:none;stroke:#ffffff;stroke-width:0.5;stroke-linecap:butt;stroke-linejoin:miter;stroke-miterlimit:10;stroke-dasharray:none;stroke-opacity:1"
                 id="path204" />
            </g>
            <g
               id="g206"
               transform="translate(39.9473,6.957)">
              <path
                 d="m 0,0 c -1.171,1.125 -2.201,2.388 -3.113,3.683 -1.289,1.828 -2.552,3.881 -4.777,4.739 -0.896,0.345 -1.877,0.463 -2.837,0.622 -3.61,0.597 -7.253,1.943 -9.479,4.542 -2.226,2.6 -2.551,6.654 0.011,8.995 0.873,0.798 2.043,1.395 2.561,2.409 0.401,0.783 0.339,1.683 0.267,2.541 -0.21,2.513 -0.42,5.122 0.596,7.474 1.015,2.351 3.644,4.357 6.447,4.005 1.745,-0.22 3.828,-1.203 5.026,-0.052 0.706,0.678 0.595,1.727 0.817,2.63 0.491,1.997 2.769,3.335 5.048,3.592 2.278,0.257 4.56,-0.344 6.735,-1.001 0,0 12.556,-4.312 11.124,-26.221 C 16.995,-3.95 0,0 0,0"
                 style="fill:#ed7124;fill-opacity:1;fill-rule:nonzero;stroke:none"
                 id="path208" />
              <text
                 xml:space="preserve"
                 style="font-weight:500;font-stretch:condensed;font-size:2.69161px;font-family:Futura;-inkscape-font-specification:'Futura, Medium Condensed';text-align:center;text-anchor:middle;fill:#000000;fill-opacity:1;stroke:#000000;stroke-width:0.0463127;stroke-opacity:0.604457;paint-order:stroke fill markers"
                 x="16.790724"
                 y="-43.205971"
                 id="text2506-3"
                 transform="scale(1.2889057,-0.77585194)"><tspan
                   sodipodi:role="line"
                   id="tspan2504-79"
                   style="fill:#000000;fill-opacity:1;stroke-width:0.0463128"
                   x="16.790724"
                   y="-43.205971">ed7124ff</tspan></text>
            </g>
            <g
               id="g210"
               transform="translate(39.9473,6.957)">
              <path
                 d="m 0,0 c -1.171,1.125 -2.201,2.388 -3.113,3.683 -1.289,1.828 -2.552,3.881 -4.777,4.739 -0.896,0.345 -1.877,0.463 -2.837,0.622 -3.61,0.597 -7.253,1.943 -9.479,4.542 -2.226,2.6 -2.551,6.654 0.011,8.995 0.873,0.798 2.043,1.395 2.561,2.409 0.401,0.783 0.339,1.683 0.267,2.541 -0.21,2.513 -0.42,5.122 0.596,7.474 1.015,2.351 3.644,4.357 6.447,4.005 1.745,-0.22 3.828,-1.203 5.026,-0.052 0.706,0.678 0.595,1.727 0.817,2.63 0.491,1.997 2.769,3.335 5.048,3.592 2.278,0.257 4.56,-0.344 6.735,-1.001 0,0 12.556,-4.312 11.124,-26.221 C 16.995,-3.95 0,0 0,0 Z"
                 style="fill:none;stroke:#ffffff;stroke-width:0.5;stroke-linecap:butt;stroke-linejoin:miter;stroke-miterlimit:10;stroke-dasharray:none;stroke-opacity:1"
                 id="path212" />
            </g>
            <g
               id="g214"
               transform="translate(45.3646,9.9624)">
              <path
                 d="m 0,0 c -1.997,0.709 -3.584,2.609 -4.02,4.812 -0.451,2.286 0.252,4.791 -0.616,6.934 -1.091,2.691 -4.104,3.662 -6.374,5.305 -1.77,1.281 -3.218,3.174 -3.709,5.399 -0.491,2.225 -0.066,4.295 0.937,6.253 1.734,3.387 5.462,4.858 7.87,4.231 1.709,-0.445 3.506,-1.3 4.256,-3.002 0.63,-1.43 0.407,-3.232 1.287,-4.502 1.238,-1.788 3.878,-1.448 5.684,-0.345 1.462,0.893 2.761,2.166 4.277,2.885 0,0 4.078,-4.32 1.215,-17.2 C 7.945,-2.111 0,0 0,0"
                 style="fill:#ce5029;fill-opacity:1;fill-rule:nonzero;stroke:none"
                 id="path216" />
            </g>
            <g
               id="g218"
               transform="translate(45.3646,9.9624)">
              <path
                 d="m 0,0 c -1.997,0.709 -3.584,2.609 -4.02,4.812 -0.451,2.286 0.252,4.791 -0.616,6.934 -1.091,2.691 -4.104,3.662 -6.374,5.305 -1.77,1.281 -3.218,3.174 -3.709,5.399 -0.491,2.225 -0.066,4.295 0.937,6.253 1.734,3.387 5.462,4.858 7.87,4.231 1.709,-0.445 3.506,-1.3 4.256,-3.002 0.63,-1.43 0.407,-3.232 1.287,-4.502 1.238,-1.788 3.878,-1.448 5.684,-0.345 1.462,0.893 2.761,2.166 4.277,2.885 0,0 4.078,-4.32 1.215,-17.2 C 7.945,-2.111 0,0 0,0 Z"
                 style="fill:none;stroke:#ffffff;stroke-width:0.5;stroke-linecap:butt;stroke-linejoin:miter;stroke-miterlimit:10;stroke-dasharray:none;stroke-opacity:1"
                 id="path220" />
            </g>
          </g>
        </g>
      </g>
    </g>
  </g>
</svg>
